PathFileType	4	(X/Y/Z)	/Users/itak/Documents/Research/Walk-IL/dataset/trc/00167_00008.trc
DataRate	CameraRate	NumFrames	NumMarkers	Units	OrigDataRate	OrigDataStartFrame	OrigNumFrames
100.000000	100.000000	4	54	mm	100.000000	78	629
Frame#	Time	RPSI			LPSI			L3			STRN			T10			C7			CLAV			RBAK			LBAK			LSHO			LUPA			LAEL			LAOL			LWTS			LWPS			LFRA			LIFD			LHPS			LHTS			RSHO			RUPA			RAEL			RAOL			RWTS			RWPS			RFRA			RIFD			RHTS			RHPS			RBHD			LFHD			RFHD			LBHD			LHIP			RHIP			RASI			LASI			LKNE			LTHI			LANK			LTIP			LTOE			LMT1			LMT5			LHEE			RKNE			RTHI			RANK			RTIP			RTOE			RMT1			RMT5			RHEE			*53			
		X1	Y1	Z1	X2	Y2	Z2	X3	Y3	Z3	X4	Y4	Z4	X5	Y5	Z5	X6	Y6	Z6	X7	Y7	Z7	X8	Y8	Z8	X9	Y9	Z9	X10	Y10	Z10	X11	Y11	Z11	X12	Y12	Z12	X13	Y13	Z13	X14	Y14	Z14	X15	Y15	Z15	X16	Y16	Z16	X17	Y17	Z17	X18	Y18	Z18	X19	Y19	Z19	X20	Y20	Z20	X21	Y21	Z21	X22	Y22	Z22	X23	Y23	Z23	X24	Y24	Z24	X25	Y25	Z25	X26	Y26	Z26	X27	Y27	Z27	X28	Y28	Z28	X29	Y29	Z29	X30	Y30	Z30	X31	Y31	Z31	X32	Y32	Z32	X33	Y33	Z33	X34	Y34	Z34	X35	Y35	Z35	X36	Y36	Z36	X37	Y37	Z37	X38	Y38	Z38	X39	Y39	Z39	X40	Y40	Z40	X41	Y41	Z41	X42	Y42	Z42	X43	Y43	Z43	X44	Y44	Z44	X45	Y45	Z45	X46	Y46	Z46	X47	Y47	Z47	X48	Y48	Z48	X49	Y49	Z49	X50	Y50	Z50	X51	Y51	Z51	X52	Y52	Z52	X53	Y53	Z53	X54	Y54	Z54	

79	0.78	-1905.626586914062	1054.276123046875	-19.80994415283203	-1900.151733398438	1052.7060546875	-144.6919403076172	-1902.60205078125	1090.407470703125	-79.62599945068359	-1646.945922851562	1301.931640625	-85.40687561035156	-1939.311279296875	1245.754272460938	-87.55942535400391	-1879.445190429688	1516.240356445312	-101.1173400878906	-1676.355346679688	1415.276489257812	-95.26303863525391	-1944.127197265625	1340.636352539062	9.088581085205078	-1883.8525390625	1490.630493164062	-203.3893585205078	-1804.865600585938	1477.269775390625	-280.9912719726562	-1828.63427734375	1342.513793945312	-353.5729370117188	-1797.844116210938	1121.364990234375	-363.4168090820312	-1854.939086914062	1108.396484375	-297.716064453125	-1684.918579101562	896.0685424804688	-300.5882873535156	-1757.293579101562	870.0076904296875	-356.1490173339844	-1777.1513671875	1011.092529296875	-369.7850036621094	-1669.136352539062	711.7132568359375	-268.8865661621094	-1733.922119140625	801.41748046875	-344.4111328125	-1668.786254882812	817.0911254882812	-314.3346862792969	-1817.439819335938	1497.685302734375	79.98674011230469	-1833.801391601562	1430.797729492188	151.3977203369141	-1824.227416992188	1139.533447265625	205.0582427978516	-1837.81494140625	1133.385986328125	108.1864242553711	-1673.895263671875	919.5390625	168.4211883544922	-1741.741455078125	899.8726196289062	224.7135772705078	-1792.3955078125	1069.029052734375	220.1881408691406	-1652.505615234375	730.7627563476562	145.6159973144531	-1642.838745117188	826.6632690429688	173.2754821777344	-1709.244018554688	817.5198974609375	217.8701782226562	-1841.292114257812	1675.37255859375	-24.80834197998047	-1685.598510742188	1737.988891601562	-164.4337158203125	-1677.422241210938	1737.658447265625	-35.08029556274414	-1855.863159179688	1682.541870117188	-161.5051116943359	-1794.832153320312	989.8431396484375	-260.4875793457031	-1756.715454101562	1013.198364257812	106.6021575927734	-1669.455932617188	1041.694946289062	52.21678161621094	-1671.0322265625	1027.673828125	-205.4310607910156	-1793.468872070312	494.7149353027344	-230.2665405273438	-1780.206909179688	636.8974609375	-256.4864196777344	-1893.106811523438	42.64533615112305	-240.7766723632812	-1842.236450195312	276.4853820800781	-248.8224029541016	-1672.5322265625	38.82941055297852	-242.7655029296875	-1716.95458984375	38.70014572143555	-188.2652893066406	-1791.075317382812	33.2632942199707	-293.1482849121094	-1934.38427734375	40.96174621582031	-164.9018707275391	-1768.288696289062	513.166259765625	87.1500244140625	-1706.276123046875	780.7564697265625	115.9395065307617	-1869.52685546875	38.12198638916016	86.81621551513672	-1764.72216796875	396.8744812011719	69.36798858642578	-1645.02197265625	37.93144989013672	52.05595779418945	-1702.091064453125	36.73456573486328	6.596137523651123	-1758.006958007812	33.97168350219727	121.4030303955078	-1919.902709960938	36.73393630981445	20.1417179107666	nan	nan	nan	
80	0.79	-1905.5810546875	1054.306640625	-19.69290924072266	-1900.139038085938	1052.715209960938	-144.5426635742188	-1902.545532226562	1090.40673828125	-79.47678375244141	-1646.889038085938	1301.858154296875	-85.36500549316406	-1939.252319335938	1245.817749023438	-87.48224639892578	-1879.27001953125	1516.262084960938	-101.0819854736328	-1676.244873046875	1415.208862304688	-95.22634887695312	-1944.015258789062	1340.714477539062	9.172343254089355	-1883.723510742188	1490.626220703125	-203.3410034179688	-1804.75732421875	1477.219116210938	-280.9446411132812	-1828.612915039062	1342.5068359375	-353.5365600585938	-1797.949340820312	1121.402221679688	-363.6406860351562	-1855.045043945312	1108.40185546875	-297.9303894042969	-1685.35302734375	895.81689453125	-301.2434387207031	-1757.826416015625	869.9991455078125	-356.8307495117188	-1777.400390625	1011.129516601562	-370.1917724609375	-1669.800048828125	711.5033569335938	-269.9151306152344	-1734.553588867188	801.3464965820312	-345.2312927246094	-1669.328491210938	816.8388671875	-315.1344909667969	-1817.263793945312	1497.69775390625	80.04880523681641	-1833.65087890625	1430.817749023438	151.4553985595703	-1824.199462890625	1139.505981445312	204.9664764404297	-1837.769653320312	1133.419555664062	108.1028594970703	-1673.875366210938	919.5242309570312	168.2011260986328	-1741.6689453125	899.8191528320312	224.4649353027344	-1792.395141601562	1068.981811523438	220.0618133544922	-1652.412231445312	730.77001953125	145.2982635498047	-1642.832397460938	826.65234375	173.0255737304688	-1709.177368164062	817.484619140625	217.6070861816406	-1841.088500976562	1675.395629882812	-24.85249710083008	-1685.347412109375	1737.958862304688	-164.4842834472656	-1677.138916015625	1737.625610351562	-35.07441329956055	-1855.6064453125	1682.540893554688	-161.5181732177734	-1794.844360351562	989.8412475585938	-260.3580017089844	-1756.693237304688	1013.189025878906	106.6870040893555	-1669.45751953125	1041.678955078125	52.27736282348633	-1670.992797851562	1027.65771484375	-205.3441009521484	-1793.516479492188	494.7160949707031	-230.1854553222656	-1780.274658203125	636.8997192382812	-256.3947448730469	-1893.110473632812	42.64627838134766	-240.7692565917969	-1842.265258789062	276.4965209960938	-248.7926025390625	-1672.531982421875	38.82942581176758	-242.7647094726562	-1716.953125	38.69841003417969	-188.2649078369141	-1791.075073242188	33.267333984375	-293.1454467773438	-1934.38916015625	40.95587921142578	-164.8908538818359	-1768.281616210938	513.1641845703125	87.21541595458984	-1706.229614257812	780.773193359375	116.0213165283203	-1869.527221679688	38.11302947998047	86.82379913330078	-1764.732055664062	396.8742065429688	69.43137359619141	-1645.024047851562	37.93171310424805	52.05765533447266	-1702.0986328125	36.73814392089844	6.603041172027588	-1758.014282226562	33.96106338500977	121.4060516357422	-1919.907958984375	36.74230575561523	20.14920806884766	nan	nan	nan	
81	0.8	-1905.534057617188	1054.342041015625	-19.56947326660156	-1900.125244140625	1052.730102539062	-144.3834533691406	-1902.489379882812	1090.416259765625	-79.31968688964844	-1646.827514648438	1301.787231445312	-85.31864166259766	-1939.1943359375	1245.885986328125	-87.40390014648438	-1879.094604492188	1516.293334960938	-101.0450134277344	-1676.130981445312	1415.143798828125	-95.18997192382812	-1943.890747070312	1340.803955078125	9.265979766845703	-1883.588134765625	1490.622924804688	-203.287841796875	-1804.644775390625	1477.173583984375	-280.8960266113281	-1828.584228515625	1342.505737304688	-353.49853515625	-1798.044677734375	1121.450073242188	-363.8773193359375	-1855.130737304688	1108.406860351562	-298.15283203125	-1685.770141601562	895.5809326171875	-301.927001953125	-1758.326049804688	870.0026245117188	-357.5353393554688	-1777.620727539062	1011.177917480469	-370.6110229492188	-1670.433471679688	711.2682495117188	-271.0285949707031	-1735.152221679688	801.2860107421875	-346.0811767578125	-1669.8359375	816.6001586914062	-315.9706726074219	-1817.083618164062	1497.71875	80.11320495605469	-1833.498291015625	1430.841430664062	151.50830078125	-1824.173828125	1139.48095703125	204.8829345703125	-1837.72412109375	1133.45263671875	108.0294342041016	-1673.869262695312	919.5103149414062	167.98046875	-1741.59765625	899.768798828125	224.2282257080078	-1792.388671875	1068.93408203125	219.9429931640625	-1652.33251953125	730.7864379882812	144.9705047607422	-1642.84375	826.6353759765625	172.7625579833984	-1709.12109375	817.4493408203125	217.3407287597656	-1840.877807617188	1675.42333984375	-24.88723373413086	-1685.099853515625	1737.93408203125	-164.5428009033203	-1676.845947265625	1737.601684570312	-35.07924652099609	-1855.348754882812	1682.529174804688	-161.5231475830078	-1794.850830078125	989.84130859375	-260.2170715332031	-1756.625	1013.196899414062	106.7961730957031	-1669.458984375	1041.661743164062	52.33665466308594	-1670.948608398438	1027.642211914062	-205.25439453125	-1793.555908203125	494.7163391113281	-230.1031951904297	-1780.34326171875	636.9044799804688	-256.3044128417969	-1893.114013671875	42.64675140380859	-240.7607574462891	-1842.291137695312	276.505859375	-248.7622833251953	-1672.530883789062	38.82953643798828	-242.7642669677734	-1716.951293945312	38.69564437866211	-188.2646789550781	-1791.075805664062	33.27284240722656	-293.1418151855469	-1934.395263671875	40.95035552978516	-164.8784637451172	-1768.277709960938	513.1630859375	87.28524017333984	-1706.197265625	780.7889404296875	116.1017532348633	-1869.527709960938	38.10210037231445	86.83248901367188	-1764.747314453125	396.8720397949219	69.49909973144531	-1645.029052734375	37.93185806274414	52.06048965454102	-1702.107421875	36.74283599853516	6.610707759857178	-1758.021118164062	33.94919204711914	121.4102478027344	-1919.913818359375	36.75028610229492	20.15785789489746	nan	nan	nan	
82	0.8100000000000001	-1905.48681640625	1054.383178710938	-19.44025421142578	-1900.11083984375	1052.752197265625	-144.2161254882812	-1902.434448242188	1090.438354492188	-79.15623474121094	-1646.760498046875	1301.719970703125	-85.26799774169922	-1939.13671875	1245.958862304688	-87.32334899902344	-1878.9189453125	1516.335083007812	-101.0053176879883	-1676.013793945312	1415.08251953125	-95.15463256835938	-1943.752685546875	1340.904907226562	9.369231224060059	-1883.446411132812	1490.62109375	-203.2293701171875	-1804.528076171875	1477.135131835938	-280.8453369140625	-1828.547729492188	1342.511962890625	-353.4593200683594	-1798.129516601562	1121.50927734375	-364.1256408691406	-1855.195556640625	1108.413330078125	-298.3837585449219	-1686.1708984375	895.363037109375	-302.6327819824219	-1758.789794921875	870.0185546875	-358.2579040527344	-1777.81201171875	1011.238830566406	-371.0403137207031	-1671.028076171875	710.9942016601562	-272.2223815917969	-1735.715454101562	801.2369995117188	-346.9540100097656	-1670.310791015625	816.37890625	-316.8348999023438	-1816.898193359375	1497.749633789062	80.17971038818359	-1833.341186523438	1430.869262695312	151.5563354492188	-1824.146850585938	1139.459228515625	204.8081359863281	-1837.677490234375	1133.487182617188	107.9673233032227	-1673.877685546875	919.49853515625	167.7608947753906	-1741.52880859375	899.7235107421875	224.0055541992188	-1792.3720703125	1068.887939453125	219.833740234375	-1652.275390625	730.8114624023438	144.6321411132812	-1642.872680664062	826.6136474609375	172.4861297607422	-1709.07568359375	817.4163208007812	217.0713500976562	-1840.655883789062	1675.456420898438	-24.90975189208984	-1684.855346679688	1737.913208007812	-164.6081085205078	-1676.544799804688	1737.586669921875	-35.09678649902344	-1855.092407226562	1682.510864257812	-161.5194396972656	-1794.85400390625	989.8438720703125	-260.0679321289062	-1756.509643554688	1013.222900390625	106.9286956787109	-1669.462280273438	1041.643432617188	52.39433288574219	-1670.9013671875	1027.627197265625	-205.1607971191406	-1793.585693359375	494.715576171875	-230.0210876464844	-1780.410766601562	636.9119262695312	-256.2176208496094	-1893.116943359375	42.6469612121582	-240.7518768310547	-1842.312866210938	276.5133972167969	-248.7322082519531	-1672.529296875	38.82975006103516	-242.7643127441406	-1716.948852539062	38.6920280456543	-188.2645568847656	-1791.07763671875	33.27960586547852	-293.1377258300781	-1934.40185546875	40.94569396972656	-164.8654174804688	-1768.275390625	513.1630859375	87.35897827148438	-1706.176025390625	780.80224609375	116.1797256469727	-1869.5283203125	38.08951568603516	86.8421630859375	-1764.765380859375	396.8678283691406	69.57056427001953	-1645.037109375	37.93161773681641	52.06468963623047	-1702.117797851562	36.74847030639648	6.61881160736084	-1758.027099609375	33.93669509887695	121.4156341552734	-1919.920166015625	36.75762176513672	20.16766929626465	nan	nan	nan	
